<?xml version="1.0" encoding="UTF-8" standalone="no"?>
<!DOCTYPE svg PUBLIC "-//W3C//DTD SVG 1.1//EN" "http://www.w3.org/Graphics/SVG/1.1/DTD/svg11.dtd">
<svg xmlns="http://www.w3.org/2000/svg" version="1.1" viewBox="0.00 0.00 284.00 130.00">
<path stroke="#898ab7" stroke-width="2.00" fill="none" stroke-linecap="butt" vector-effect="non-scaling-stroke" d="
  M 274.31 92.79
  Q 275.86 89.60 275.85 86.34
  Q 275.70 56.52 275.88 25.53
  Q 275.91 20.30 274.47 16.90
  Q 270.65 7.87 259.13 7.89
  Q 181.28 8.01 97.64 7.92
  C 93.05 7.92 88.27 8.41 83.72 8.45
  C 70.63 8.55 55.10 8.85 40.88 7.98
  Q 34.30 7.58 26.45 7.82
  C 19.47 8.03 13.63 10.03 10.61 16.59
  Q 9.39 19.24 9.43 25.51
  Q 9.62 56.50 9.42 85.45
  C 9.37 91.95 11.79 97.30 17.78 100.06
  Q 21.03 101.57 27.45 101.55
  Q 94.97 101.44 170.58 101.48
  Q 171.89 101.48 172.81 102.42
  L 190.61 120.59
  A 0.86 0.86 0.0 0 0 191.82 120.61
  L 211.04 102.37
  A 3.15 3.14 -66.6 0 1 213.20 101.51
  Q 236.41 101.48 260.25 101.45
  Q 270.11 101.44 274.31 92.79"
/>
<path fill="#12146f" d="
  M 278.08 96.32
  Q 272.38 106.32 260.51 106.37
  Q 237.49 106.45 216.60 106.28
  C 215.08 106.26 213.59 106.77 212.49 107.84
  Q 203.90 116.25 195.30 124.21
  Q 193.45 125.92 191.39 127.54
  A 0.58 0.58 0.0 0 1 190.62 127.50
  Q 180.66 117.80 171.30 107.98
  Q 169.66 106.26 167.19 106.27
  Q 102.44 106.59 37.98 106.49
  Q 29.96 106.47 23.03 106.14
  C 14.98 105.74 8.75 101.49 5.72 93.91
  Q 4.28 90.32 4.34 82.48
  Q 4.56 50.78 4.43 21.04
  C 4.39 13.71 9.76 6.94 16.23 4.33
  Q 19.68 2.94 24.02 2.94
  Q 142.08 2.99 261.83 2.98
  C 270.01 2.97 277.07 8.52 279.52 16.01
  C 280.55 19.15 280.38 22.44 280.40 25.75
  Q 280.53 52.59 280.44 86.26
  Q 280.42 92.20 278.08 96.32
  Z
  M 274.31 92.79
  Q 275.86 89.60 275.85 86.34
  Q 275.70 56.52 275.88 25.53
  Q 275.91 20.30 274.47 16.90
  Q 270.65 7.87 259.13 7.89
  Q 181.28 8.01 97.64 7.92
  C 93.05 7.92 88.27 8.41 83.72 8.45
  C 70.63 8.55 55.10 8.85 40.88 7.98
  Q 34.30 7.58 26.45 7.82
  C 19.47 8.03 13.63 10.03 10.61 16.59
  Q 9.39 19.24 9.43 25.51
  Q 9.62 56.50 9.42 85.45
  C 9.37 91.95 11.79 97.30 17.78 100.06
  Q 21.03 101.57 27.45 101.55
  Q 94.97 101.44 170.58 101.48
  Q 171.89 101.48 172.81 102.42
  L 190.61 120.59
  A 0.86 0.86 0.0 0 0 191.82 120.61
  L 211.04 102.37
  A 3.15 3.14 -66.6 0 1 213.20 101.51
  Q 236.41 101.48 260.25 101.45
  Q 270.11 101.44 274.31 92.79
  Z"
/>
<path fill="#ffffff" d="
  M 274.31 92.79
  Q 270.11 101.44 260.25 101.45
  Q 236.41 101.48 213.20 101.51
  A 3.15 3.14 -66.6 0 0 211.04 102.37
  L 191.82 120.61
  A 0.86 0.86 0.0 0 1 190.61 120.59
  L 172.81 102.42
  Q 171.89 101.48 170.58 101.48
  Q 94.97 101.44 27.45 101.55
  Q 21.03 101.57 17.78 100.06
  C 11.79 97.30 9.37 91.95 9.42 85.45
  Q 9.62 56.50 9.43 25.51
  Q 9.39 19.24 10.61 16.59
  C 13.63 10.03 19.47 8.03 26.45 7.82
  Q 34.30 7.58 40.88 7.98
  C 55.10 8.85 70.63 8.55 83.72 8.45
  C 88.27 8.41 93.05 7.92 97.64 7.92
  Q 181.28 8.01 259.13 7.89
  Q 270.65 7.87 274.47 16.90
  Q 275.91 20.30 275.88 25.53
  Q 275.70 56.52 275.85 86.34
  Q 275.86 89.60 274.31 92.79
  Z"
/>
</svg>
